# xmcd
# Track frame offsets:
# 150
# 15072
# 32119
# 50630
# 85906
#
# Disc length: 1439 seconds
# Revision: 0
# Processed by: cddbd v1.5.2PL0 Copyright (c) Steve Scherf et al.
# Submitted via: VisiTrax 2.11.3.279 - For more info visit www.synapsa.com
#
DISCID=2f059d05
DTITLE=Sophie Ellis Bexor - Get Over You Ep
DYEAR=1900
DGENRE=
TTITLE0=Get Over You (Single Mix)
TTITLE1=Move This Mountain (Radio Edit)
TTITLE2=Live It Up (Acoustic Version)
TTITLE3=Get Over You (Max Reich Vocal Mix)
TTITLE4=Murder On The Dancefloor (Jewels and Stone Mix Edit)
EXTD=
EXTT0=
EXTT1=
EXTT2=
EXTT3=
EXTT4=
PLAYORDER=
